# xmcd
#
# Track frame offsets:
#  182
#  11815
#  25857
#  39182
#  52852
#  66350
#  78170
#  93830
#  106305
#  116525
#  129837
#  147827
#  160747
#  181990
#  201850
#
# Disc length: 2856 seconds
#
# Revision: 0
# Processed by: cddbd v1.4PL0 Copyright (c) Steve Scherf et al.
# Submitted via: AltoMP3_Maker 3.0
#
DISCID=b50b260f
DTITLE=Hugh Moffatt Trio - The Wognum Sessions
DYEAR=1900
DGENRE=
TTITLE0=Your Sweet Love
TTITLE1=I Get Lonely for You
TTITLE2=Sittin' on a Side Track
TTITLE3=The Dancer
TTITLE4=New Mexico Blue
TTITLE5=Drive Me Wild
TTITLE6=I Know What You Like
TTITLE7=Red Lips, Blue Eyes, Little White Lies
TTITLE8=Island Sunset
TTITLE9=I Do
TTITLE10=Dad
TTITLE11=On the Border Line
TTITLE12=My Dream
TTITLE13=Nobody Wants to be Lonely
TTITLE14=The Way Love Is
EXTD=
EXTT0=
EXTT1=
EXTT2=
EXTT3=
EXTT4=
EXTT5=
EXTT6=
EXTT7=
EXTT8=
EXTT9=
EXTT10=
EXTT11=
EXTT12=
EXTT13=
EXTT14=
PLAYORDER=
